<svg width="22" height="21" viewBox="0 0 22 21" fill="none" xmlns="http://www.w3.org/2000/svg">
<path d="M17.7236 19.4244V7.08923H21.0275L21.4995 15.9399L20.5555 18.9266L19.1396 20.42L17.7236 19.4244Z" fill="#434343"/>
<path fill-rule="evenodd" clip-rule="evenodd" d="M0 19.4111C0 20.2359 0.649269 20.9069 1.44962 20.9069H16.6429C17.4435 20.9069 18.0925 20.2372 18.0925 19.4111V1.49581C18.0925 0.670996 17.4432 0 16.6429 0H1.44962C0.648999 0 0 0.669741 0 1.49581V19.4111ZM16.6429 1.49335C16.6429 1.49335 16.6451 19.4111 16.6451 19.4111C16.6451 19.4111 1.44962 19.4135 1.44962 19.4135C1.44956 19.4135 1.4474 1.49581 1.4474 1.49581C1.4474 1.49578 16.6429 1.49335 16.6429 1.49335Z" fill="#434343"/>
<path fill-rule="evenodd" clip-rule="evenodd" d="M11.1438 6.2976H14.4024C14.8021 6.2976 15.1261 5.9633 15.1261 5.55092C15.1261 5.13854 14.8021 4.80425 14.4024 4.80425H11.1438C10.7441 4.80425 10.4201 5.13854 10.4201 5.55092C10.4201 5.9633 10.7441 6.2976 11.1438 6.2976ZM4.26862 14.511H14.4024C14.8021 14.511 15.1261 14.1767 15.1261 13.7643C15.1261 13.352 14.8021 13.0177 14.4024 13.0177H4.26862C3.86893 13.0177 3.54492 13.352 3.54492 13.7643C3.54492 14.1767 3.86893 14.511 4.26862 14.511ZM11.1438 10.4043H14.4024C14.8021 10.4043 15.1261 10.07 15.1261 9.65763C15.1261 9.24526 14.8021 8.91096 14.4024 8.91096H11.1438C10.7441 8.91096 10.4201 9.24526 10.4201 9.65763C10.4201 10.07 10.7441 10.4043 11.1438 10.4043ZM4.9933 5.92744C4.9933 5.92619 4.99517 5.92426 4.99639 5.92426H7.88502C7.88624 5.92426 7.8881 5.92619 7.8881 5.92744V8.90777C7.8881 8.90903 7.88623 8.91096 7.88502 8.91096H4.99639C4.99517 8.91096 4.9933 8.90903 4.9933 8.90777V5.92744ZM3.5459 5.92744V8.90777C3.5459 9.73347 4.19549 10.4043 4.99639 10.4043H7.88502C8.68531 10.4043 9.33551 9.73409 9.33551 8.90777V5.92744C9.33551 5.10174 8.68591 4.43091 7.88502 4.43091H4.99639C4.1961 4.43091 3.5459 5.10112 3.5459 5.92744ZM18.0199 7.79095H20.5538C20.5542 7.79095 20.5529 7.78958 20.5529 7.7916V17.4977C20.5529 18.3223 19.9043 18.9911 19.1043 18.9911H16.9344C16.5347 18.9911 16.2107 19.3254 16.2107 19.7377C16.2107 20.1501 16.5347 20.4844 16.9344 20.4844H19.1043C20.7035 20.4844 22.0003 19.1472 22.0003 17.4977V7.7916C22.0003 6.96475 21.3535 6.2976 20.5538 6.2976H18.0199C17.6202 6.2976 17.2962 6.63189 17.2962 7.04427C17.2962 7.45665 17.6202 7.79095 18.0199 7.79095Z" fill="#434343"/>
</svg>
