<svg width="32" height="30" viewBox="0 0 32 30" fill="none" xmlns="http://www.w3.org/2000/svg">
<path d="M25.1515 27.2434V11.3422H29.7401L30.3956 22.4039L29.0846 26.552L27.118 28.6261L25.1515 27.2434Z" fill="#434343"/>
<path fill-rule="evenodd" clip-rule="evenodd" d="M0.8974 27.2395C0.8974 28.3851 1.79915 29.317 2.91074 29.317H24.0122C25.1242 29.317 26.0256 28.3868 26.0256 27.2395V2.35752C26.0256 1.21196 25.1238 0.280029 24.0122 0.280029H2.91074C1.79878 0.280029 0.8974 1.21021 0.8974 2.35752V27.2395ZM24.0122 2.3541C24.0123 2.3541 24.0153 27.2395 24.0153 27.2395C24.0153 27.2396 2.91074 27.2429 2.91074 27.2429C2.91065 27.2429 2.90765 2.35752 2.90765 2.35752C2.90765 2.35747 24.0122 2.3541 24.0122 2.3541Z" fill="#434343"/>
<path fill-rule="evenodd" clip-rule="evenodd" d="M15.973 9.6131H20.4988C21.0539 9.6131 21.5039 9.1488 21.5039 8.57606C21.5039 8.00332 21.0539 7.53903 20.4988 7.53903H15.973C15.4178 7.53903 14.9678 8.00332 14.9678 8.57606C14.9678 9.1488 15.4178 9.6131 15.973 9.6131ZM6.42426 21.0205H20.4988C21.0539 21.0205 21.5039 20.5562 21.5039 19.9834C21.5039 19.4107 21.0539 18.9464 20.4988 18.9464H6.42426C5.86914 18.9464 5.41913 19.4107 5.41913 19.9834C5.41913 20.5562 5.86914 21.0205 6.42426 21.0205ZM15.973 15.3168H20.4988C21.0539 15.3168 21.5039 14.8525 21.5039 14.2798C21.5039 13.707 21.0539 13.2427 20.4988 13.2427H15.973C15.4178 13.2427 14.9678 13.707 14.9678 14.2798C14.9678 14.8525 15.4178 15.3168 15.973 15.3168ZM7.43074 9.099C7.43074 9.09726 7.43334 9.09458 7.43503 9.09458H11.447C11.4487 9.09458 11.4513 9.09726 11.4513 9.099V13.2383C11.4513 13.24 11.4487 13.2427 11.447 13.2427H7.43503C7.43334 13.2427 7.43074 13.24 7.43074 13.2383V9.099ZM5.42049 9.099V13.2383C5.42049 14.3851 6.32269 15.3168 7.43503 15.3168H11.447C12.5585 15.3168 13.4615 14.386 13.4615 13.2383V9.099C13.4615 7.95221 12.5593 7.02051 11.447 7.02051H7.43503C6.32353 7.02051 5.42049 7.95135 5.42049 9.099ZM25.523 11.6872H29.0423C29.0428 11.6872 29.041 11.6853 29.041 11.6881V25.1685C29.041 26.3139 28.1402 27.2427 27.0291 27.2427H24.0153C23.4602 27.2427 23.0102 27.707 23.0102 28.2797C23.0102 28.8525 23.4602 29.3168 24.0153 29.3168H27.0291C29.2502 29.3168 31.0512 27.4596 31.0512 25.1685V11.6881C31.0512 10.5397 30.1529 9.6131 29.0423 9.6131H25.523C24.9679 9.6131 24.5179 10.0774 24.5179 10.6501C24.5179 11.2229 24.9679 11.6872 25.523 11.6872Z" fill="#434343"/>
</svg>
