<svg width="8" height="12" viewBox="0 0 8 12" fill="none" xmlns="http://www.w3.org/2000/svg">
<path d="M6.45308 11.6024L0.688172 6.43092C0.619746 6.36935 0.571391 6.30266 0.543109 6.23083C0.514369 6.159 0.5 6.08205 0.5 5.99996C0.5 5.91787 0.514369 5.84091 0.543109 5.76909C0.571391 5.69726 0.619746 5.63057 0.688172 5.569L6.45308 0.382105C6.61274 0.238452 6.81232 0.166626 7.05181 0.166626C7.2913 0.166626 7.49658 0.243583 7.66764 0.397497C7.83871 0.55141 7.92424 0.730977 7.92424 0.936195C7.92424 1.14141 7.83871 1.32098 7.66764 1.47489L2.63832 5.99996L7.66764 10.525C7.82731 10.6687 7.90714 10.8456 7.90714 11.0557C7.90714 11.2663 7.8216 11.4485 7.65054 11.6024C7.47947 11.7563 7.2799 11.8333 7.05181 11.8333C6.82372 11.8333 6.62415 11.7563 6.45308 11.6024Z" fill="white"/>
</svg>
