<svg width="21" height="24" viewBox="0 0 21 24" fill="none" xmlns="http://www.w3.org/2000/svg">
<path d="M4.35002 9.69999V9.69966C4.34946 8.42185 4.74694 7.1756 5.48721 6.13407C6.22749 5.09254 7.27381 4.30746 8.48077 3.88791L9.07417 3.68165L8.97515 3.06128C8.93981 2.83987 8.95293 2.61343 9.01359 2.39758C9.07426 2.18173 9.18103 1.98161 9.32654 1.81103C9.47205 1.64045 9.65284 1.50347 9.85643 1.40954C10.06 1.31561 10.2816 1.26697 10.5058 1.26697C10.73 1.26697 10.9515 1.31561 11.1551 1.40954C11.3587 1.50347 11.5395 1.64045 11.685 1.81103C11.8305 1.98161 11.9373 2.18173 11.998 2.39758C12.0586 2.61343 12.0717 2.83987 12.0364 3.06128L11.9376 3.68054L12.5295 3.88748C13.7346 4.30874 14.7787 5.09456 15.517 6.13595C16.2554 7.17733 16.6513 8.42266 16.65 9.69923V9.69999V16.6V17.0014L16.984 17.224L20.0979 19.3H0.902108L4.01605 17.224L4.35002 17.0014V16.6V9.69999ZM11.8565 21.95C11.7869 22.0758 11.6996 22.1925 11.596 22.296C11.3054 22.5867 10.9111 22.75 10.5 22.75C10.0889 22.75 9.69469 22.5867 9.40401 22.296C9.3005 22.1925 9.21314 22.0758 9.14356 21.95H11.8565Z" stroke="#434343" stroke-width="1.5"/>
</svg>
