<svg width="15" height="16" viewBox="0 0 15 16" fill="none" xmlns="http://www.w3.org/2000/svg">
<path d="M3.61806 7.12972C4.65806 9.17361 6.33 10.8456 8.3775 11.8856L9.96639 10.2931C10.165 10.0944 10.4503 10.0367 10.6994 10.1161C11.5083 10.3833 12.3786 10.5278 13.2778 10.5278C13.6786 10.5278 14 10.8492 14 11.25V13.7778C14 14.1786 13.6786 14.5 13.2778 14.5C6.49611 14.5 1 9.00389 1 2.22222C1 1.82139 1.325 1.5 1.72222 1.5H4.25C4.65083 1.5 4.97222 1.82139 4.97222 2.22222C4.97222 3.12139 5.11667 3.99167 5.38389 4.80056C5.46333 5.04972 5.40556 5.335 5.20694 5.53361L3.61806 7.12972Z" fill="white"/>
</svg>
