<svg width="11" height="9" viewBox="0 0 11 9" fill="none" xmlns="http://www.w3.org/2000/svg">
<path d="M1.85952 3.80504H1.85934H1.08841C0.893145 3.80504 0.775277 4.03081 0.901788 4.18898L0.901839 4.18904L3.92268 7.96166L3.92272 7.96172C4.12417 8.21305 4.50913 8.21232 4.71121 7.96216L4.71162 7.96165L10.0973 1.23396C10.0975 1.23376 10.0976 1.23356 10.0978 1.23336C10.2269 1.07414 10.1041 0.85 9.91159 0.85H9.14066C8.98789 0.85 8.84171 0.918978 8.74645 1.03925C8.74635 1.03938 8.74626 1.0395 8.74616 1.03962L4.3166 6.57115L2.25335 3.99404L2.13616 4.08768L2.25326 3.99393L2.25331 3.994C2.20615 3.93498 2.14617 3.88743 2.07801 3.85477C2.00983 3.8221 1.93513 3.80513 1.85952 3.80504Z" fill="white" stroke="white" stroke-width="0.3"/>
</svg>
