<svg width="22" height="25" viewBox="0 0 22 25" fill="none" xmlns="http://www.w3.org/2000/svg">
<path d="M20.8011 4.06396H1.19911C1.0821 4.06396 0.966233 4.09469 0.85813 4.15439C0.750028 4.21409 0.651803 4.30159 0.569065 4.41191C0.486328 4.52223 0.420697 4.65319 0.375922 4.79733C0.331146 4.94147 0.308102 5.09595 0.308105 5.25196V10.004H21.6921V5.25196C21.6921 5.09595 21.6691 4.94147 21.6243 4.79733C21.5795 4.65319 21.5139 4.52223 21.4311 4.41191C21.3484 4.30159 21.2502 4.21409 21.1421 4.15439C21.034 4.09469 20.9181 4.06396 20.8011 4.06396Z" fill="#434343"/>
<path d="M20.6799 2.70032H1.31994C1.20438 2.70031 1.08994 2.72307 0.983176 2.7673C0.876408 2.81152 0.779396 2.87634 0.69768 2.95806C0.615963 3.03977 0.551143 3.13678 0.50692 3.24355C0.462698 3.35032 0.439938 3.46475 0.439941 3.58032V4.90032C0.439938 4.78475 0.462698 4.67032 0.50692 4.56355C0.551143 4.45678 0.615963 4.35977 0.69768 4.27806C0.779396 4.19634 0.876408 4.13152 0.983176 4.0873C1.08994 4.04307 1.20438 4.02031 1.31994 4.02032H20.6799C20.7955 4.02031 20.9099 4.04307 21.0167 4.0873C21.1235 4.13152 21.2205 4.19634 21.3022 4.27806C21.3839 4.35977 21.4487 4.45678 21.493 4.56355C21.5372 4.67032 21.5599 4.78475 21.5599 4.90032V3.58032C21.5599 3.46475 21.5372 3.35032 21.493 3.24355C21.4487 3.13678 21.3839 3.03977 21.3022 2.95806C21.2205 2.87634 21.1235 2.81152 21.0167 2.7673C20.9099 2.72307 20.7955 2.70031 20.6799 2.70032Z" fill="white"/>
<path d="M15.4 4.45994C15.1666 4.45994 14.9428 4.36723 14.7778 4.2022C14.6127 4.03716 14.52 3.81333 14.52 3.57994V1.81994C14.52 1.58655 14.6127 1.36272 14.7778 1.19769C14.9428 1.03266 15.1666 0.939941 15.4 0.939941C15.6334 0.939941 15.8572 1.03266 16.0223 1.19769C16.1873 1.36272 16.28 1.58655 16.28 1.81994V3.57994C16.28 3.81333 16.1873 4.03716 16.0223 4.2022C15.8572 4.36723 15.6334 4.45994 15.4 4.45994Z" fill="#434343"/>
<path d="M15.4 2.25994C15.2845 2.25994 15.17 2.2827 15.0633 2.32692C14.9565 2.37114 14.8595 2.43596 14.7778 2.51768C14.696 2.5994 14.6312 2.69641 14.587 2.80318C14.5428 2.90994 14.52 3.02438 14.52 3.13994V1.81994C14.52 1.58655 14.6127 1.36272 14.7778 1.19769C14.9428 1.03266 15.1666 0.939941 15.4 0.939941C15.6334 0.939941 15.8572 1.03266 16.0223 1.19769C16.1873 1.36272 16.28 1.58655 16.28 1.81994V3.13994C16.28 3.02438 16.2573 2.90994 16.213 2.80318C16.1688 2.69641 16.104 2.5994 16.0223 2.51768C15.9406 2.43596 15.8436 2.37114 15.7368 2.32692C15.63 2.2827 15.5156 2.25994 15.4 2.25994Z" fill="white"/>
<path opacity="0.2" d="M15.4 3.14001C15.2845 3.14001 15.17 3.11725 15.0633 3.07303C14.9565 3.02881 14.8595 2.96399 14.7778 2.88227C14.696 2.80056 14.6312 2.70354 14.587 2.59678C14.5428 2.49001 14.52 2.37557 14.52 2.26001V3.58001C14.52 3.8134 14.6127 4.03723 14.7778 4.20226C14.9428 4.3673 15.1666 4.46001 15.4 4.46001C15.6334 4.46001 15.8572 4.3673 16.0223 4.20226C16.1873 4.03723 16.28 3.8134 16.28 3.58001V2.26001C16.28 2.37557 16.2573 2.49001 16.213 2.59678C16.1688 2.70354 16.104 2.80056 16.0223 2.88227C15.9406 2.96399 15.8436 3.02881 15.7368 3.07303C15.63 3.11725 15.5156 3.14001 15.4 3.14001Z" fill="#434343"/>
<path d="M6.59997 4.45994C6.36658 4.45994 6.14275 4.36723 5.97772 4.2022C5.81268 4.03716 5.71997 3.81333 5.71997 3.57994V1.81994C5.71997 1.58655 5.81268 1.36272 5.97772 1.19769C6.14275 1.03266 6.36658 0.939941 6.59997 0.939941C6.83336 0.939941 7.05719 1.03266 7.22222 1.19769C7.38726 1.36272 7.47997 1.58655 7.47997 1.81994V3.57994C7.47997 3.81333 7.38726 4.03716 7.22222 4.2022C7.05719 4.36723 6.83336 4.45994 6.59997 4.45994Z" fill="#434343"/>
<path d="M6.59997 2.25994C6.48441 2.25994 6.36997 2.2827 6.2632 2.32692C6.15644 2.37114 6.05943 2.43596 5.97771 2.51768C5.89599 2.5994 5.83117 2.69641 5.78695 2.80318C5.74273 2.90994 5.71997 3.02438 5.71997 3.13994V1.81994C5.71997 1.58655 5.81268 1.36272 5.97772 1.19769C6.14275 1.03266 6.36658 0.939941 6.59997 0.939941C6.83336 0.939941 7.05719 1.03266 7.22222 1.19769C7.38726 1.36272 7.47997 1.58655 7.47997 1.81994V3.13994C7.47997 3.02438 7.45721 2.90994 7.41299 2.80318C7.36877 2.69641 7.30395 2.5994 7.22223 2.51768C7.14052 2.43596 7.0435 2.37114 6.93674 2.32692C6.82997 2.2827 6.71553 2.25994 6.59997 2.25994Z" fill="white"/>
<path opacity="0.2" d="M6.59997 3.14001C6.48441 3.14001 6.36997 3.11725 6.2632 3.07303C6.15644 3.02881 6.05943 2.96399 5.97771 2.88227C5.89599 2.80056 5.83117 2.70354 5.78695 2.59678C5.74273 2.49001 5.71997 2.37557 5.71997 2.26001V3.58001C5.71997 3.8134 5.81268 4.03723 5.97772 4.20226C6.14275 4.3673 6.36658 4.46001 6.59997 4.46001C6.83336 4.46001 7.05719 4.3673 7.22222 4.20226C7.38726 4.03723 7.47997 3.8134 7.47997 3.58001V2.26001C7.47997 2.37557 7.45721 2.49001 7.41299 2.59678C7.36877 2.70354 7.30395 2.80056 7.22223 2.88227C7.14052 2.96399 7.0435 3.02881 6.93674 3.07303C6.82997 3.11725 6.71553 3.14001 6.59997 3.14001Z" fill="#434343"/>
<path d="M0.808105 23.3846V23.3846V8.12793H21.1921V23.3846C21.1921 23.4326 21.1825 23.4804 21.1636 23.5253C21.1446 23.5702 21.1166 23.6116 21.0807 23.6469C21.0448 23.6822 21.0017 23.7106 20.9536 23.7302L21.1421 24.1933L20.9536 23.7302C20.9055 23.7498 20.8537 23.7599 20.8011 23.7599H1.19911C1.14653 23.7599 1.09469 23.7498 1.04659 23.7302L0.858459 24.1925L1.04659 23.7302C0.998506 23.7106 0.955392 23.6822 0.919479 23.6469L0.569065 24.0035L0.919475 23.6469C0.883578 23.6116 0.855584 23.5702 0.836651 23.5253C0.817725 23.4804 0.808104 23.4326 0.808105 23.3846Z" fill="white" stroke="#434343"/>
<path d="M20.68 24.2616H1.32C0.970031 24.2613 0.634506 24.1296 0.387041 23.8955C0.139576 23.6613 0.000382006 23.3439 0 23.0128V4.6967C0.000382006 4.3656 0.139576 4.04817 0.387041 3.81405C0.634506 3.57993 0.970031 3.44824 1.32 3.44788H5.72C5.8367 3.44788 5.94861 3.49173 6.03113 3.5698C6.11364 3.64787 6.16 3.75375 6.16 3.86415C6.16 3.97455 6.11364 4.08044 6.03113 4.1585C5.94861 4.23657 5.8367 4.28043 5.72 4.28043H1.32C1.20334 4.28054 1.09149 4.32443 1.009 4.40247C0.926511 4.48051 0.880116 4.58633 0.88 4.6967V23.0128C0.880116 23.1232 0.926511 23.229 1.009 23.307C1.09149 23.3851 1.20334 23.429 1.32 23.4291H20.68C20.7967 23.429 20.9085 23.3851 20.991 23.307C21.0735 23.229 21.1199 23.1232 21.12 23.0128V4.6967C21.1199 4.58633 21.0735 4.48051 20.991 4.40247C20.9085 4.32443 20.7967 4.28054 20.68 4.28043H16.28C16.1633 4.28043 16.0514 4.23657 15.9689 4.1585C15.8864 4.08044 15.84 3.97455 15.84 3.86415C15.84 3.75375 15.8864 3.64787 15.9689 3.5698C16.0514 3.49173 16.1633 3.44788 16.28 3.44788H20.68C21.03 3.44824 21.3655 3.57993 21.613 3.81405C21.8604 4.04817 21.9996 4.3656 22 4.6967V23.0128C21.9996 23.3439 21.8604 23.6613 21.613 23.8955C21.3655 24.1296 21.03 24.2613 20.68 24.2616Z" fill="#434343"/>
<path d="M14.5198 4.32788H7.47979C7.3631 4.32788 7.25118 4.28152 7.16867 4.199C7.08615 4.11649 7.03979 4.00457 7.03979 3.88788C7.03979 3.77118 7.08615 3.65927 7.16867 3.57675C7.25118 3.49423 7.3631 3.44788 7.47979 3.44788H14.5198C14.6365 3.44788 14.7484 3.49423 14.8309 3.57675C14.9134 3.65927 14.9598 3.77118 14.9598 3.88788C14.9598 4.00457 14.9134 4.11649 14.8309 4.199C14.7484 4.28152 14.6365 4.32788 14.5198 4.32788Z" fill="#434343"/>
<path d="M15.4001 4.9C15.0501 4.89962 14.7146 4.76042 14.4671 4.51296C14.2197 4.26549 14.0805 3.92997 14.0801 3.58V1.82C14.0801 1.46991 14.2191 1.13417 14.4667 0.886619C14.7142 0.639071 15.05 0.5 15.4001 0.5C15.7502 0.5 16.0859 0.639071 16.3335 0.886619C16.581 1.13417 16.7201 1.46991 16.7201 1.82V3.58C16.7197 3.92997 16.5805 4.26549 16.333 4.51296C16.0856 4.76042 15.75 4.89962 15.4001 4.9ZM15.4001 1.38C15.2834 1.38012 15.1716 1.42651 15.0891 1.509C15.0066 1.59149 14.9602 1.70334 14.9601 1.82V3.58C14.9601 3.6967 15.0064 3.80861 15.089 3.89113C15.1715 3.97364 15.2834 4.02 15.4001 4.02C15.5168 4.02 15.6287 3.97364 15.7112 3.89113C15.7937 3.80861 15.8401 3.6967 15.8401 3.58V1.82C15.84 1.70334 15.7936 1.59149 15.7111 1.509C15.6286 1.42651 15.5167 1.38012 15.4001 1.38Z" fill="#434343"/>
<path d="M6.60003 4.9C6.25006 4.89962 5.91454 4.76042 5.66707 4.51296C5.41961 4.26549 5.28041 3.92997 5.28003 3.58V1.82C5.28003 1.46991 5.4191 1.13417 5.66665 0.886619C5.9142 0.639071 6.24994 0.5 6.60003 0.5C6.95012 0.5 7.28586 0.639071 7.53341 0.886619C7.78096 1.13417 7.92003 1.46991 7.92003 1.82V3.58C7.91965 3.92997 7.78045 4.26549 7.53299 4.51296C7.28552 4.76042 6.95 4.89962 6.60003 4.9ZM6.60003 1.38C6.48337 1.38012 6.37152 1.42651 6.28903 1.509C6.20654 1.59149 6.16015 1.70334 6.16003 1.82V3.58C6.16003 3.6967 6.20639 3.80861 6.2889 3.89113C6.37142 3.97364 6.48333 4.02 6.60003 4.02C6.71672 4.02 6.82864 3.97364 6.91116 3.89113C6.99367 3.80861 7.04003 3.6967 7.04003 3.58V1.82C7.03991 1.70334 6.99352 1.59149 6.91103 1.509C6.82854 1.42651 6.71669 1.38012 6.60003 1.38Z" fill="#434343"/>
<path d="M6.18636 13.1514V14.6943H4.6435V13.1514H6.18636ZM6.95778 12.38H3.87207V15.4657H6.95778V12.38ZM6.18636 17.78V19.3229H4.6435V17.78H6.18636ZM6.95778 17.0086H3.87207V20.0943H6.95778V17.0086ZM16.9401 14.3086H10.6915V13.5371H16.9401V14.3086ZM16.9401 18.9371H10.6915V18.1657H16.9401V18.9371Z" fill="#434343"/>
</svg>
