<svg width="11" height="8" viewBox="0 0 11 8" fill="none" xmlns="http://www.w3.org/2000/svg">
<path d="M1.85952 3.30504H1.85934H1.08841C0.893145 3.30504 0.775277 3.53081 0.901788 3.68898L0.901839 3.68904L3.92268 7.46166L3.92272 7.46172C4.12417 7.71305 4.50913 7.71232 4.71121 7.46216L4.71162 7.46165L10.0973 0.733963C10.0975 0.73376 10.0976 0.733558 10.0978 0.733356C10.2269 0.574141 10.1041 0.35 9.91159 0.35H9.14066C8.98789 0.35 8.84171 0.418978 8.74645 0.539254C8.74635 0.539376 8.74626 0.539498 8.74616 0.539621L4.3166 6.07115L2.25335 3.49404L2.13616 3.58768L2.25326 3.49393L2.25331 3.494C2.20615 3.43498 2.14617 3.38743 2.07801 3.35477C2.00983 3.3221 1.93513 3.30513 1.85952 3.30504Z" fill="#DDDDDD" stroke="#DDDDDD" stroke-width="0.3"/>
</svg>
