<svg width="22" height="22" viewBox="0 0 22 22" fill="none" xmlns="http://www.w3.org/2000/svg">
<path d="M12.0489 2.51349V0.307251H9.90584V2.51349C5.0851 3.04711 1.33374 7.13064 1.33374 12.0939C1.33374 14.3708 2.12773 16.4592 3.44676 18.1094L1.88557 19.6705L3.40069 21.1857L4.96188 19.6245C6.61201 20.9435 8.70039 21.7375 10.9773 21.7375C13.2543 21.7375 15.3427 20.9435 16.9928 19.6245L18.554 21.1857L20.0691 19.6705L18.5079 18.1094C19.827 16.4592 20.621 14.3708 20.621 12.0939C20.621 7.13064 16.8696 3.04711 12.0489 2.51349ZM10.9773 19.5945C6.83488 19.5945 3.47676 16.2364 3.47676 12.0939C3.47676 7.95142 6.83488 4.5933 10.9773 4.5933C15.1198 4.5933 18.4779 7.95142 18.4779 12.0939C18.4779 16.2364 15.1198 19.5945 10.9773 19.5945Z" fill="#434343"/>
<path d="M12.049 6.73645H9.90601V12.6298L13.187 15.9107L14.7032 14.3956L12.049 11.7426V6.73645Z" fill="#434343"/>
<path d="M5.30366 1.56013L3.78833 0.0447998L-9.08146e-07 3.83313L1.51533 5.34846L5.30366 1.56013Z" fill="#434343"/>
<path d="M22 3.78833L18.2117 0L16.6963 1.51533L20.4847 5.30366L22 3.78833Z" fill="#434343"/>
</svg>
