<svg width="99" height="99" viewBox="0 0 99 99" fill="none" xmlns="http://www.w3.org/2000/svg">
<path d="M95.7383 44.9775C95.6931 44.5392 95.548 44.1171 95.3142 43.7434C95.0804 43.3698 94.7641 43.0545 94.3895 42.8219L86.8747 38.2026L90.7285 30.196C90.8763 29.7918 90.9317 29.3597 90.8908 28.9313C90.8499 28.5029 90.7136 28.0891 90.492 27.7201C90.2703 27.3511 89.9689 27.0363 89.6098 26.7986C89.2506 26.561 88.8428 26.4065 88.4162 26.3466L79.7068 24.9608L80.0536 16.1843C80.0986 15.7235 80.032 15.2586 79.8594 14.8289C79.6868 14.3992 79.4132 14.0173 79.0618 13.7154C78.7104 13.4134 78.2915 13.2004 77.8404 13.0941C77.3892 12.9878 76.9191 12.9915 76.4697 13.1048L67.9144 15.145L64.9085 6.86885C64.7572 6.45153 64.5116 6.07468 64.1907 5.76758C63.8699 5.46048 63.4825 5.2314 63.0587 5.09815C62.6305 4.9702 62.1787 4.94184 61.7378 5.01523C61.2969 5.08862 60.8787 5.26183 60.5152 5.52158L53.3473 10.7182L47.374 4.25129C47.07 3.93187 46.6968 3.68623 46.283 3.53318C45.8692 3.38013 45.4259 3.32374 44.9869 3.36833C44.5479 3.41292 44.125 3.55731 43.7506 3.79043C43.3761 4.02354 43.0601 4.3392 42.8266 4.71321L38.2021 12.2195L30.2249 8.52408C29.8312 8.37643 29.4099 8.31639 28.9906 8.34816C28.5712 8.37992 28.1638 8.50271 27.7969 8.70797C27.43 8.91323 27.1123 9.196 26.866 9.53656C26.6198 9.87711 26.4509 10.2672 26.3712 10.6797L24.7526 19.3793L15.9276 19.0328C15.4809 19.0038 15.0338 19.0832 14.6244 19.2641C14.2151 19.4451 13.8557 19.7223 13.5768 20.0721C13.3119 20.4108 13.1259 20.8042 13.0326 21.2238C12.9392 21.6433 12.9408 22.0784 13.0373 22.4972L15.0798 31.0428L6.8328 34.0453C6.39063 34.1917 5.99044 34.4427 5.66632 34.7769C5.34219 35.1111 5.10374 35.5186 4.97128 35.9647C4.83881 36.4108 4.81625 36.8823 4.90553 37.339C4.9948 37.7956 5.19326 38.224 5.484 38.5876L10.648 45.5934L4.21227 51.6754C3.89249 51.9791 3.64657 52.3518 3.49334 52.7651C3.34012 53.1785 3.28367 53.6213 3.32831 54.0598C3.37295 54.4983 3.5175 54.9207 3.75088 55.2947C3.98427 55.6688 4.30028 55.9845 4.67471 56.2176L12.1509 60.9908L8.48991 68.6895C8.30659 69.0927 8.21858 69.5326 8.23268 69.9752C8.24679 70.4178 8.36263 70.8512 8.57126 71.242C8.77988 71.6327 9.07568 71.9702 9.43579 72.2285C9.7959 72.4868 10.2107 72.6588 10.648 72.7314L19.3574 74.1171L19.0106 82.8937C18.993 83.3379 19.0783 83.7802 19.26 84.1861C19.4416 84.592 19.7147 84.9505 20.0578 85.2336C20.401 85.5168 20.805 85.7169 21.2383 85.8185C21.6716 85.9201 22.1226 85.9203 22.556 85.8192L31.1113 84.087L34.0787 92.1706C34.2328 92.5873 34.481 92.9628 34.8041 93.2679C35.1272 93.5731 35.5165 93.7997 35.9416 93.93C36.3666 94.0604 36.8161 94.091 37.255 94.0195C37.6939 93.9481 38.1103 93.7764 38.4719 93.5179L45.6398 88.3598L51.6131 94.8267C51.8837 95.1181 52.2116 95.3506 52.5764 95.5096C52.9411 95.6685 53.3347 95.7506 53.7327 95.7505H54.0024C54.4412 95.7054 54.8638 95.5604 55.2379 95.3269C55.612 95.0934 55.9276 94.7774 56.1605 94.4033L60.785 86.897L68.8008 90.7464C69.1945 90.894 69.6157 90.954 70.0351 90.9223C70.4545 90.8905 70.8618 90.7677 71.2288 90.5625C71.5957 90.3572 71.9134 90.0744 72.1596 89.7339C72.4059 89.3933 72.5748 89.0032 72.6545 88.5907L74.0418 79.8912L82.8283 80.2376C83.2746 80.2634 83.7207 80.1826 84.1295 80.0019C84.5383 79.8211 84.8981 79.5456 85.1791 79.1983C85.4622 78.854 85.6617 78.449 85.7619 78.015C85.8622 77.5809 85.8606 77.1295 85.7571 76.6962L83.7147 68.1506L92.2314 64.8402C92.6485 64.6863 93.0245 64.4383 93.33 64.1155C93.6355 63.7928 93.8623 63.404 93.9928 62.9794C94.1233 62.5548 94.154 62.1058 94.0824 61.6675C94.0109 61.2291 93.839 60.8131 93.5802 60.4519L88.3777 53.2921L94.852 47.3256C95.1671 47.0261 95.4104 46.6593 95.5639 46.2528C95.7174 45.8462 95.777 45.4103 95.7383 44.9775Z" fill="#B41F20"/>
<path d="M51.5423 31.4451L51.1176 55.2782H46.5928L46.1681 31.4451H51.5423ZM48.8634 65.21C47.9595 65.21 47.1863 64.8942 46.5438 64.2626C45.9012 63.6201 45.5854 62.8469 45.5963 61.943C45.5854 61.05 45.9012 60.2877 46.5438 59.656C47.1863 59.0135 47.9595 58.6923 48.8634 58.6923C49.7455 58.6923 50.5078 59.0135 51.1503 59.656C51.7928 60.2877 52.1195 61.05 52.1304 61.943C52.1195 62.5419 51.9616 63.0919 51.6567 63.5928C51.3627 64.0829 50.9706 64.4749 50.4806 64.769C49.9905 65.063 49.4514 65.21 48.8634 65.21Z" fill="white"/>
</svg>
