<svg width="12" height="15" viewBox="0 0 12 15" fill="none" xmlns="http://www.w3.org/2000/svg">
<path d="M10.0003 5.33329H9.33366V3.99996C9.33366 2.15996 7.84032 0.666626 6.00033 0.666626C4.16033 0.666626 2.66699 2.15996 2.66699 3.99996V5.33329H2.00033C1.26366 5.33329 0.666992 5.92996 0.666992 6.66663V13.3333C0.666992 14.07 1.26366 14.6666 2.00033 14.6666H10.0003C10.737 14.6666 11.3337 14.07 11.3337 13.3333V6.66663C11.3337 5.92996 10.737 5.33329 10.0003 5.33329ZM6.00033 11.3333C5.26366 11.3333 4.66699 10.7366 4.66699 9.99996C4.66699 9.26329 5.26366 8.66663 6.00033 8.66663C6.73699 8.66663 7.33366 9.26329 7.33366 9.99996C7.33366 10.7366 6.73699 11.3333 6.00033 11.3333ZM8.06699 5.33329H3.93366V3.99996C3.93366 2.85996 4.86033 1.93329 6.00033 1.93329C7.14033 1.93329 8.06699 2.85996 8.06699 3.99996V5.33329Z" fill="white"/>
</svg>
