<svg width="16" height="16" viewBox="0 0 16 16" fill="none" xmlns="http://www.w3.org/2000/svg">
<g clip-path="url(#clip0_917_501)">
<path d="M12.0003 5.33329H11.3337V3.99996C11.3337 2.15996 9.84032 0.666626 8.00033 0.666626C6.16033 0.666626 4.66699 2.15996 4.66699 3.99996V5.33329H4.00033C3.26366 5.33329 2.66699 5.92996 2.66699 6.66663V13.3333C2.66699 14.07 3.26366 14.6666 4.00033 14.6666H12.0003C12.737 14.6666 13.3337 14.07 13.3337 13.3333V6.66663C13.3337 5.92996 12.737 5.33329 12.0003 5.33329ZM8.00033 11.3333C7.26366 11.3333 6.66699 10.7366 6.66699 9.99996C6.66699 9.26329 7.26366 8.66663 8.00033 8.66663C8.73699 8.66663 9.33366 9.26329 9.33366 9.99996C9.33366 10.7366 8.73699 11.3333 8.00033 11.3333ZM10.067 5.33329H5.93366V3.99996C5.93366 2.85996 6.86033 1.93329 8.00033 1.93329C9.14033 1.93329 10.067 2.85996 10.067 3.99996V5.33329Z" fill="white"/>
</g>
<defs>
<clipPath id="clip0_917_501">
<rect width="16" height="16" fill="white"/>
</clipPath>
</defs>
</svg>
