<svg width="12" height="12" viewBox="0 0 12 12" fill="none" xmlns="http://www.w3.org/2000/svg">
<path d="M8.20312 8.29687C8.08854 8.16146 8.03125 8.00771 8.03125 7.83562C8.03125 7.66396 8.08854 7.52083 8.20312 7.40625L9.35937 6.25H4.875C4.69792 6.25 4.54958 6.19 4.43 6.07C4.31 5.95042 4.25 5.80208 4.25 5.625C4.25 5.44792 4.31 5.29937 4.43 5.17937C4.54958 5.05979 4.69792 5 4.875 5H9.35937L8.20312 3.84375C8.07812 3.71875 8.01562 3.57042 8.01562 3.39875C8.01562 3.22667 8.07812 3.07812 8.20312 2.95312C8.31771 2.82812 8.46104 2.76563 8.63313 2.76563C8.80479 2.76563 8.94792 2.82292 9.0625 2.9375L11.3125 5.1875C11.375 5.25 11.4194 5.31771 11.4456 5.39062C11.4715 5.46354 11.4844 5.54167 11.4844 5.625C11.4844 5.70833 11.4715 5.78646 11.4456 5.85938C11.4194 5.93229 11.375 6 11.3125 6.0625L9.0625 8.3125C8.92708 8.44792 8.77875 8.50771 8.6175 8.49187C8.45583 8.47646 8.31771 8.41146 8.20312 8.29687V8.29687ZM1.75 11.25C1.40625 11.25 1.11187 11.1277 0.866875 10.8831C0.622292 10.6381 0.5 10.3438 0.5 10V1.25C0.5 0.90625 0.622292 0.611875 0.866875 0.366875C1.11187 0.122292 1.40625 0 1.75 0H5.5C5.67708 0 5.82563 0.0597916 5.94563 0.179375C6.06521 0.299375 6.125 0.447917 6.125 0.625C6.125 0.802083 6.06521 0.950417 5.94563 1.07C5.82563 1.19 5.67708 1.25 5.5 1.25H1.75V10H5.5C5.67708 10 5.82563 10.06 5.94563 10.18C6.06521 10.2996 6.125 10.4479 6.125 10.625C6.125 10.8021 6.06521 10.9504 5.94563 11.07C5.82563 11.19 5.67708 11.25 5.5 11.25H1.75Z" fill="#434343"/>
</svg>
