<svg width="16" height="15" viewBox="0 0 16 15" fill="none" xmlns="http://www.w3.org/2000/svg">
<path d="M15.5622 7.04687C14.9442 5.74503 14.2089 4.68331 13.3561 3.86171L12.4617 4.75609C13.191 5.45306 13.8263 6.36484 14.3756 7.50038C12.9131 10.5273 10.8371 11.9652 8.00004 11.9652C7.14844 11.9652 6.36404 11.8341 5.64686 11.5718L4.67777 12.5409C5.67387 13.0009 6.78129 13.2309 8.00004 13.2309C11.3786 13.2309 13.8993 11.4713 15.5622 7.95214C15.629 7.81061 15.6637 7.65603 15.6637 7.49951C15.6637 7.34298 15.629 7.1884 15.5622 7.04687ZM14.4447 1.41062L13.6954 0.660384C13.6823 0.647309 13.6668 0.636937 13.6497 0.62986C13.6326 0.622783 13.6143 0.619141 13.5959 0.619141C13.5774 0.619141 13.5591 0.622783 13.542 0.62986C13.5249 0.636937 13.5094 0.647309 13.4964 0.660384L11.5738 2.58202C10.5139 2.04062 9.32262 1.76992 8.00004 1.76992C4.62152 1.76992 2.10082 3.52949 0.437931 7.04863C0.371091 7.19016 0.336426 7.34474 0.336426 7.50126C0.336426 7.65779 0.371091 7.81237 0.437931 7.9539C1.10227 9.35312 1.90207 10.4747 2.83735 11.3185L0.977228 13.1781C0.950876 13.2045 0.936072 13.2402 0.936072 13.2775C0.936072 13.3148 0.950876 13.3506 0.977228 13.3769L1.72764 14.1273C1.75401 14.1537 1.78976 14.1685 1.82704 14.1685C1.86432 14.1685 1.90008 14.1537 1.92645 14.1273L14.4447 1.6096C14.4578 1.59654 14.4682 1.58103 14.4752 1.56396C14.4823 1.54689 14.486 1.52859 14.486 1.51011C14.486 1.49163 14.4823 1.47333 14.4752 1.45626C14.4682 1.43919 14.4578 1.42368 14.4447 1.41062ZM1.62445 7.50038C3.08871 4.47343 5.16469 3.03554 8.00004 3.03554C8.95875 3.03554 9.83045 3.20007 10.6213 3.53458L9.38555 4.77033C8.80032 4.45807 8.13022 4.34219 7.47411 4.43976C6.818 4.53734 6.21063 4.8432 5.74159 5.31224C5.27255 5.78129 4.96668 6.38866 4.86911 7.04477C4.77153 7.70088 4.88742 8.37097 5.19967 8.9562L3.7333 10.4226C2.92172 9.70626 2.22211 8.73577 1.62445 7.50038ZM5.96098 7.50038C5.96129 7.19042 6.03471 6.8849 6.17527 6.60864C6.31584 6.33238 6.51959 6.09318 6.76998 5.91046C7.02036 5.72774 7.31032 5.60666 7.61629 5.55706C7.92226 5.50745 8.23561 5.53072 8.5309 5.62497L6.05432 8.10156C5.99224 7.90721 5.96075 7.7044 5.96098 7.50038Z" fill="#878E94"/>
<path d="M7.92989 9.46898C7.86907 9.46898 7.80913 9.46617 7.74971 9.46072L6.82124 10.3892C7.37968 10.6031 7.98811 10.6506 8.57298 10.526C9.15786 10.4015 9.69413 10.1102 10.117 9.68732C10.5398 9.26448 10.8311 8.7282 10.9557 8.14333C11.0802 7.55846 11.0327 6.95002 10.8188 6.39159L9.89037 7.32006C9.89582 7.37947 9.89863 7.43942 9.89863 7.50024C9.89877 7.75881 9.84794 8.01488 9.74905 8.25381C9.65016 8.49273 9.50515 8.70982 9.32231 8.89266C9.13947 9.0755 8.92238 9.22051 8.68346 9.3194C8.44454 9.41829 8.18847 9.46912 7.92989 9.46898Z" fill="#878E94"/>
</svg>
