<svg width="16" height="12" viewBox="0 0 16 12" fill="none" xmlns="http://www.w3.org/2000/svg">
<path d="M15.5622 5.54648C13.8957 2.03613 11.3768 0.269531 8.00004 0.269531C4.62152 0.269531 2.10434 2.03613 0.437931 5.54824C0.371091 5.68978 0.336426 5.84436 0.336426 6.00088C0.336426 6.1574 0.371091 6.31198 0.437931 6.45352C2.10434 9.96387 4.62328 11.7305 8.00004 11.7305C11.3786 11.7305 13.8957 9.96387 15.5622 6.45176C15.6975 6.16699 15.6975 5.83652 15.5622 5.54648ZM8.00004 10.4648C5.16469 10.4648 3.08871 9.02695 1.62445 6C3.08871 2.97305 5.16469 1.53516 8.00004 1.53516C10.8354 1.53516 12.9114 2.97305 14.3756 6C12.9131 9.02695 10.8371 10.4648 8.00004 10.4648ZM7.92973 2.90625C6.22113 2.90625 4.83598 4.29141 4.83598 6C4.83598 7.70859 6.22113 9.09375 7.92973 9.09375C9.63832 9.09375 11.0235 7.70859 11.0235 6C11.0235 4.29141 9.63832 2.90625 7.92973 2.90625ZM7.92973 7.96875C6.84164 7.96875 5.96098 7.08809 5.96098 6C5.96098 4.91191 6.84164 4.03125 7.92973 4.03125C9.01781 4.03125 9.89848 4.91191 9.89848 6C9.89848 7.08809 9.01781 7.96875 7.92973 7.96875Z" fill="#878E94"/>
</svg>
