<svg width="31" height="29" viewBox="0 0 31 29" fill="none" xmlns="http://www.w3.org/2000/svg">
<path d="M13.3307 4.33337L3.68872 8.48152L6.44357 9.07412L9.88712 8.48152L14.0194 4.92597L13.3307 4.33337Z" fill="#434343"/>
<path d="M3.00018 9.07413L10.7786 0.777832L14.0196 4.23462" fill="#434343"/>
<path d="M3.00018 9.07413L10.7786 0.777832L14.0196 4.23462" stroke="#434343" stroke-width="1.5" stroke-miterlimit="10" stroke-linecap="round" stroke-linejoin="round"/>
<path d="M9.8873 9.07413L14.7083 4.23462L18.1518 0.777832L26.4164 9.07413" fill="#434343"/>
<path d="M9.8873 9.07413L14.7083 4.23462L18.1518 0.777832L26.4164 9.07413" stroke="white" stroke-miterlimit="10" stroke-linecap="round" stroke-linejoin="round"/>
<path d="M28.4135 20.8668V25.1334C28.4135 26.3068 27.2978 27.2668 25.9341 27.2668H3.61989C2.25625 27.2668 1.14053 26.3068 1.14053 25.1334V11.2668C1.14053 10.0934 2.25625 9.13342 3.61989 9.13342H25.9341C27.2978 9.13342 28.4135 10.0934 28.4135 11.2668V15.5334" stroke="#434343" stroke-width="1.5" stroke-miterlimit="10" stroke-linecap="round" stroke-linejoin="round"/>
<path d="M29.6532 19.8C29.6532 20.3888 29.0978 20.8667 28.4135 20.8667H22.8349C21.123 20.8667 19.7357 19.6731 19.7357 18.2C19.7357 16.7269 21.123 15.5333 22.8349 15.5333H28.4135C29.0978 15.5333 29.6532 16.0112 29.6532 16.6V19.8Z" stroke="#434343" stroke-width="1.5" stroke-miterlimit="10" stroke-linecap="round" stroke-linejoin="round"/>
<path d="M22.8349 19.2668C23.5196 19.2668 24.0746 18.7892 24.0746 18.2001C24.0746 17.611 23.5196 17.1334 22.8349 17.1334C22.1502 17.1334 21.5952 17.611 21.5952 18.2001C21.5952 18.7892 22.1502 19.2668 22.8349 19.2668Z" fill="#434343"/>
</svg>
