<svg width="60" height="60" viewBox="0 0 60 60" fill="none" xmlns="http://www.w3.org/2000/svg">
<path d="M13.1055 36.5327C12.4423 37.675 15.1138 36.6278 15.335 35.1046C15.5561 33.5813 15.3591 30.3063 15.8749 29.0876C16.2788 28.1335 16.5489 26.8086 17.1415 26.0579C17.1074 26.2359 16.7886 28.2519 16.9562 29.2653C17.1238 30.2787 18.0819 32.2082 18.0819 32.2082C18.0819 32.2082 16.551 33.5241 16.3376 33.9853C16.1244 34.4466 14.7654 41.5 14.7654 41.5H17.509C17.509 41.5 17.2695 40.5691 16.8413 40.4949C16.4133 40.4206 16.5343 39.7737 16.5343 39.7737C16.5343 39.7737 17.4905 35.8279 17.6011 35.39C17.7117 34.9521 19.9489 33.833 19.9489 33.833C19.9489 33.833 19.8103 35.7412 19.904 36.1454C19.9979 36.5495 21.1112 38.0749 21.3288 38.3287C21.5466 38.5826 22.5539 41.5 22.5539 41.5H24.814C24.814 41.5 24.7665 40.1138 24.1787 39.9789C22.8519 39.6742 21.7097 36.4754 21.7668 35.9147C21.8238 35.3541 23.3389 30.7356 23.3389 30.7356C23.3389 30.7356 26.5004 32.3626 28.4489 32.919C30.3975 33.4754 35.062 33.0226 35.1832 33.0688C35.3046 33.115 35.1232 34.0127 35.1232 34.0127C35.1232 34.0127 33.6113 38.1458 33.5387 38.3412C33.4659 38.5367 33.4025 39.0471 33.493 39.2626C33.5833 39.4781 34.0792 40.2962 34.1959 40.5367C34.3124 40.7773 34.0583 41.4999 34.0583 41.4999H36.443C36.443 41.4999 36.3567 40.5246 35.7006 40.5367C35.0445 40.5488 34.804 39.23 34.838 38.9872C34.872 38.7447 35.848 35.9548 36.0304 35.5953C36.2128 35.2358 36.9781 33.213 37.2653 33.2215C37.5527 33.2301 41.7317 37.1354 41.9108 37.3363C42.0898 37.5373 42.3581 39.3949 42.4511 39.6721C42.5441 39.9491 43.139 41.5 43.139 41.5H44.9569C44.9569 41.5 44.7043 40.0423 44.2691 39.9768C43.834 39.9112 43.476 38.8364 43.2864 38.6566C43.0968 38.4768 43.0583 37.0467 42.9425 36.7271C42.8269 36.4076 40.3007 32.7435 40.3918 32.5536C40.483 32.3638 41.0378 32.1342 41.2001 31.8677C41.3625 31.6012 41.2036 28.3769 41.3189 28.0355C41.4342 27.694 42.9233 24.7719 43.2637 24.7464C43.6041 24.721 44.7167 25.4574 44.9589 25.6985C45.2011 25.9396 45.6748 27.4884 46.0274 27.5645C46.3802 27.6407 47.812 26.6505 47.9805 26.1554C48.1489 25.6605 47.1697 22.5758 47.1697 22.5758C47.1697 22.5758 46.2274 20.1386 45.9251 19.9622C45.6228 19.786 45.1831 19.8974 45.0185 19.7731C44.8539 19.6488 44.2744 18.5391 44.0007 18.5011C43.7271 18.4629 43.7461 19.4277 43.4848 19.4911C43.2236 19.5547 41.3633 19.6054 41.0279 19.794C40.6927 19.9825 36.0567 23.5787 35.5989 23.6039C35.141 23.6293 29.2516 24.5942 27.1641 23.7466C24.9314 22.8402 23.3765 22.8814 20.2693 23.0708C19.2591 23.1325 18.3927 23.71 17.9881 24.0038C17.5833 24.2977 15.4821 26.6504 14.9906 27.412C14.4989 28.1737 13.953 29.2208 13.8851 29.8492C13.8171 30.4777 13.7689 35.3901 13.1055 36.5327ZM44.8858 22.4613C44.8858 22.1528 45.1279 21.9028 45.4264 21.9028C45.7248 21.9028 45.9668 22.1528 45.9668 22.4613C45.9668 22.7698 45.7248 23.0199 45.4264 23.0199C45.1279 23.0199 44.8858 22.7698 44.8858 22.4613Z" fill="#604A3D"/>
</svg>
