<svg width="14" height="15" viewBox="0 0 14 15" fill="none" xmlns="http://www.w3.org/2000/svg">
<path d="M12.5939 14.183L8.18182 9.76462C7.78788 10.0802 7.33485 10.3301 6.82273 10.5142C6.3106 10.6983 5.76566 10.7903 5.18788 10.7903C3.75656 10.7903 2.54533 10.294 1.55418 9.30148C0.562504 8.30839 0.0666656 7.09517 0.0666656 5.66182C0.0666656 4.22847 0.562504 3.01525 1.55418 2.02217C2.54533 1.02961 3.75656 0.533325 5.18788 0.533325C6.61919 0.533325 7.83069 1.02961 8.82236 2.02217C9.81351 3.01525 10.3091 4.22847 10.3091 5.66182C10.3091 6.24042 10.2172 6.78615 10.0333 7.299C9.84949 7.81185 9.6 8.26552 9.28485 8.66002L13.7167 13.0981C13.8611 13.2428 13.9333 13.4203 13.9333 13.6307C13.9333 13.8411 13.8545 14.0252 13.697 14.183C13.5525 14.3277 13.3687 14.4 13.1455 14.4C12.9222 14.4 12.7384 14.3277 12.5939 14.183ZM5.18788 9.21232C6.17273 9.21232 7.00998 8.86726 7.69963 8.17715C8.38877 7.48651 8.73333 6.64807 8.73333 5.66182C8.73333 4.67557 8.38877 3.83713 7.69963 3.14649C7.00998 2.45638 6.17273 2.11132 5.18788 2.11132C4.20303 2.11132 3.36578 2.45638 2.67612 3.14649C1.98699 3.83713 1.64242 4.67557 1.64242 5.66182C1.64242 6.64807 1.98699 7.48651 2.67612 8.17715C3.36578 8.86726 4.20303 9.21232 5.18788 9.21232Z" fill="#434343"/>
</svg>
