<svg width="99" height="99" viewBox="0 0 99 99" fill="none" xmlns="http://www.w3.org/2000/svg">
<path d="M97.7379 44.7819C97.6907 44.3247 97.5394 43.8843 97.2954 43.4945C97.0515 43.1047 96.7215 42.7758 96.3307 42.5331L88.491 37.7141L92.5114 29.3612C92.6656 28.9395 92.7235 28.4887 92.6808 28.0418C92.6381 27.5949 92.4959 27.1632 92.2647 26.7782C92.0335 26.3933 91.719 26.0648 91.3443 25.8169C90.9696 25.569 90.5442 25.4079 90.0992 25.3453L81.0131 23.8996L81.3749 14.7436C81.4219 14.2628 81.3524 13.7779 81.1723 13.3296C80.9922 12.8813 80.7068 12.4829 80.3402 12.1679C79.9737 11.8529 79.5366 11.6306 79.0659 11.5197C78.5953 11.4089 78.1048 11.4127 77.636 11.5309L68.7107 13.6593L65.5748 5.02527C65.417 4.5899 65.1607 4.19675 64.826 3.87637C64.4914 3.55599 64.0872 3.31701 63.6451 3.17799C63.1983 3.04451 62.727 3.01492 62.267 3.09148C61.8071 3.16805 61.3708 3.34875 60.9916 3.61973L53.5137 9.04109L47.2821 2.29451C46.9649 1.96128 46.5756 1.70501 46.1439 1.54534C45.7122 1.38568 45.2497 1.32685 44.7918 1.37337C44.3338 1.41988 43.8926 1.57052 43.5019 1.81371C43.1113 2.05691 42.7816 2.38622 42.538 2.7764L37.7136 10.6073L29.3914 6.75207C28.9806 6.59804 28.5412 6.53541 28.1037 6.56854C27.6662 6.60168 27.2412 6.72978 26.8584 6.94392C26.4755 7.15805 26.1441 7.45305 25.8872 7.80833C25.6303 8.16362 25.4542 8.57062 25.371 9.00093L23.6825 18.0767L14.4758 17.7153C14.0098 17.685 13.5433 17.7678 13.1163 17.9566C12.6892 18.1454 12.3142 18.4346 12.0233 18.7995C11.7469 19.1528 11.5529 19.5633 11.4556 20.001C11.3582 20.4387 11.3599 20.8925 11.4605 21.3295L13.5913 30.2446L4.98768 33.377C4.52639 33.5297 4.10889 33.7916 3.77075 34.1402C3.43261 34.4889 3.18385 34.914 3.04565 35.3794C2.90746 35.8448 2.88393 36.3366 2.97706 36.8131C3.07019 37.2895 3.27724 37.7364 3.58055 38.1156L8.96786 45.4244L2.25382 51.7694C1.92022 52.0863 1.66366 52.4752 1.50381 52.9063C1.34396 53.3375 1.28506 53.7995 1.33163 54.257C1.37821 54.7144 1.52901 55.1551 1.77248 55.5453C2.01596 55.9355 2.34564 56.2649 2.73627 56.5081L10.5358 61.4877L6.71644 69.5194C6.5252 69.94 6.43338 70.3989 6.4481 70.8607C6.46282 71.3224 6.58367 71.7746 6.80131 72.1822C7.01896 72.5898 7.32755 72.9419 7.70324 73.2114C8.07892 73.4808 8.51162 73.6603 8.96786 73.736L18.0539 75.1817L17.6921 84.3378C17.6737 84.8012 17.7628 85.2627 17.9523 85.6861C18.1418 86.1095 18.4266 86.4835 18.7846 86.7789C19.1426 87.0743 19.5641 87.2831 20.0161 87.3891C20.4682 87.495 20.9387 87.4953 21.3908 87.3898L30.3161 85.5827L33.4118 94.0159C33.5725 94.4506 33.8315 94.8423 34.1686 95.1607C34.5057 95.479 34.9118 95.7154 35.3552 95.8514C35.7987 95.9874 36.2676 96.0193 36.7255 95.9448C37.1833 95.8702 37.6178 95.6911 37.995 95.4214L45.4729 90.0402L51.7045 96.7868C51.9868 97.0909 52.3289 97.3334 52.7094 97.4992C53.0899 97.6651 53.5006 97.7507 53.9157 97.7506H54.1972C54.6549 97.7035 55.0958 97.5523 55.4861 97.3087C55.8763 97.0651 56.2056 96.7354 56.4486 96.3451L61.273 88.5142L69.6354 92.53C70.0462 92.6841 70.4856 92.7467 70.9231 92.7136C71.3606 92.6804 71.7856 92.5523 72.1684 92.3382C72.5513 92.1241 72.8827 91.8291 73.1396 91.4738C73.3965 91.1185 73.5726 90.7115 73.6558 90.2812L75.1031 81.2054L84.2696 81.5668C84.7352 81.5938 85.2006 81.5095 85.6271 81.3209C86.0536 81.1323 86.4289 80.8449 86.722 80.4826C87.0174 80.1235 87.2255 79.7009 87.3301 79.2481C87.4347 78.7952 87.433 78.3244 87.3251 77.8723L85.1943 68.9572L94.0793 65.5036C94.5145 65.343 94.9067 65.0843 95.2254 64.7476C95.5441 64.4109 95.7807 64.0053 95.9169 63.5623C96.053 63.1193 96.085 62.651 96.0104 62.1936C95.9357 61.7363 95.7564 61.3023 95.4865 60.9255L90.059 53.4561L96.8132 47.2316C97.1419 46.9191 97.3958 46.5365 97.5559 46.1123C97.716 45.6882 97.7782 45.2334 97.7379 44.7819Z" fill="#2DB674"/>
<path d="M42.6929 62.9989C42.2555 62.9811 41.8263 62.8776 41.4313 62.6947C41.0364 62.5118 40.684 62.2534 40.3954 61.935L30.8167 51.6402C30.2459 51.0178 29.9543 50.2016 30.0058 49.3712C30.0574 48.5409 30.448 47.7644 31.0917 47.2125C31.7354 46.6606 32.5795 46.3786 33.4382 46.4285C34.2969 46.4783 35.1 46.856 35.6707 47.4784L42.8548 55.3325L63.3389 36.0572C63.634 35.7343 63.9949 35.4738 64.3989 35.292C64.803 35.1102 65.2415 35.0111 65.687 35.0009C66.1326 34.9906 66.5755 35.0695 66.988 35.2325C67.4005 35.3955 67.7738 35.6391 68.0844 35.9481C68.395 36.2571 68.6363 36.6248 68.7931 37.0282C68.9499 37.4315 69.0188 37.8618 68.9956 38.2922C68.9724 38.7225 68.8575 39.1436 68.6581 39.5289C68.4588 39.9143 68.1792 40.2558 67.837 40.5318L44.9582 62.1853C44.3401 62.7291 43.5283 63.0207 42.6929 62.9989Z" fill="white"/>
</svg>
