<svg width="22" height="22" viewBox="0 0 22 22" fill="none" xmlns="http://www.w3.org/2000/svg">
<path d="M9.56052 4.07642L2.73047 6.99174L4.68191 7.40822L7.12121 6.99174L10.0484 4.49289L9.56052 4.07642Z" fill="#434343"/>
<path d="M2.73047 7.31198L8.24042 1.48132L10.5362 3.91076" fill="#434343"/>
<path d="M2.73047 7.31198L8.24042 1.48132L10.5362 3.91076" stroke="#434343" stroke-width="1.5" stroke-miterlimit="10" stroke-linecap="round" stroke-linejoin="round"/>
<path d="M7.05469 7.31198L10.4697 3.91076L12.909 1.48132L18.7633 7.31198" fill="#434343"/>
<path d="M7.05469 7.31198L10.4697 3.91076L12.909 1.48132L18.7633 7.31198" stroke="white" stroke-miterlimit="10" stroke-linecap="round" stroke-linejoin="round"/>
<path d="M20.3193 15.7825V18.7811C20.3193 19.6057 19.5289 20.2804 18.563 20.2804H2.7563C1.79033 20.2804 1 19.6057 1 18.7811V9.03557C1 8.21094 1.79033 7.53625 2.7563 7.53625H18.563C19.5289 7.53625 20.3193 8.21094 20.3193 9.03557V12.0342" stroke="#434343" stroke-width="1.5" stroke-miterlimit="10" stroke-linecap="round" stroke-linejoin="round"/>
<path d="M20.9998 14.8597C20.9998 15.2735 20.6064 15.6094 20.1217 15.6094H16.17C14.9573 15.6094 13.9746 14.7705 13.9746 13.7352C13.9746 12.6999 14.9573 11.8611 16.17 11.8611H20.1217C20.6064 11.8611 20.9998 12.1969 20.9998 12.6107V14.8597Z" stroke="#434343" stroke-width="1.5" stroke-miterlimit="10" stroke-linecap="round" stroke-linejoin="round"/>
<path d="M16.5832 14.2255C17.0682 14.2255 17.4614 13.8899 17.4614 13.4759C17.4614 13.0618 17.0682 12.7262 16.5832 12.7262C16.0982 12.7262 15.7051 13.0618 15.7051 13.4759C15.7051 13.8899 16.0982 14.2255 16.5832 14.2255Z" fill="#434343"/>
</svg>
